Good Deeds 2012 SCR XViD-26k
 
http://www.imdb.com/title/tt1885265/

Plot:
Businessman Wesley Deeds is jolted out of his scripted life when he meets Lindsey, 
a single mother who works on the cleaning crew in his office building.

Sources - Good Deeds 2012 SCR XViD-KiNGDOM....Thanks 

Format                                   : AVI
Format/Info                              : Audio Video Interleave
File size                                : 1.33 GiB
Duration                                 : 1h 50mn
Overall bit rate                         : 1 720 Kbps
Writing application                      : VirtualDubMod 1.5.10.2 (build 2540/release)
Writing library                          : VirtualDub build 32839/release

Video
ID                                       : 0
Format                                   : MPEG-4 Visual
Format profile                           : Advanced Simple@L5
Format settings, BVOP                    : 2
Format settings, QPel                    : No
Format settings, GMC                     : No warppoints
Format settings, Matrix                  : Default (H.263)
Muxing mode                              : Packed bitstream
Codec ID                                 : XVID
Codec ID/Hint                            : XviD
Duration                                 : 1h 50mn
Bit rate                                 : 1 580 Kbps
Width                                    : 720 pixels
Height                                   : 304 pixels
Display aspect ratio                     : 2.35:1
Frame rate                               : 29.970 fps
Color space                              : YUV
Chroma subsampling                       : 4:2:0
Bit depth                                : 8 bits
Scan type                                : Progressive
Compression mode                         : Lossy
Bits/(Pixel*Frame)                       : 0.241
Stream size                              : 1.22 GiB (92%)
Writing library                          : XviD 1.2.1 (UTC 2008-12-04)

Audio
ID                                       : 1
Format                                   : MPEG Audio
Format version                           : Version 1
Format profile                           : Layer 3
Mode                                     : Joint stereo
Mode extension                           : MS Stereo
Codec ID                                 : 55
Codec ID/Hint                            : MP3
Duration                                 : 1h 50mn
Bit rate mode                            : Constant
Bit rate                                 : 128 Kbps
Channel(s)                               : 2 channels
Sampling rate                            : 48.0 KHz
Compression mode                         : Lossy
Delay relative to video                  : 6ms
Stream size                              : 101 MiB (7%)
Alignment                                : Split accross interleaves
Interleave, duration                     : 33 ms (1.00 video frame)
Interleave, preload duration             : 500 ms
Writing library                          : LAME3.99.4┬¬┬¬┬¬┬¬┬¬┬¬┬¬┬¬┬¬a



Notes -

Source was ok.. needed sum work.. degrained it, denoised it, adjust RGB slightly, levels, 
contrast and sharpened... then cut the last 10 minutes off of it due to it repeating
the begin of the movie again.... came out nice... enjoy